<?xml version="1.0" standalone="no"?>
<!DOCTYPE svg PUBLIC "-//W3C//DTD SVG 20010904//EN"
 "http://www.w3.org/TR/2001/REC-SVG-20010904/DTD/svg10.dtd">
<svg version="1.0" xmlns="http://www.w3.org/2000/svg"
 width="512.000000pt" height="512.000000pt" viewBox="0 0 512.000000 512.000000"
 preserveAspectRatio="xMidYMid meet">
<metadata>
Created by potrace 1.16, written by Peter Selinger 2001-2019
</metadata>
<g transform="translate(0.000000,512.000000) scale(0.100000,-0.100000)"
fill="#000000" stroke="none">
<path d="M1564 4341 c-78 -48 -112 -145 -125 -356 -10 -182 -39 -378 -62 -424
-9 -18 -14 -37 -12 -42 7 -11 -9 -19 -21 -11 -12 9 -62 110 -75 154 -20 68
-59 273 -61 322 -1 33 -4 20 -7 -39 -3 -49 -3 -121 1 -160 4 -38 12 -128 18
-200 44 -505 156 -900 272 -961 65 -34 112 -12 227 107 72 75 79 79 95 64 9
-9 16 -26 16 -38 0 -12 9 -37 21 -56 19 -31 23 -33 60 -27 36 6 43 3 84 -35
25 -23 45 -47 45 -53 0 -6 9 -22 20 -36 11 -14 20 -33 20 -42 0 -29 -47 -69
-92 -79 -54 -12 -89 -29 -106 -51 -7 -10 -19 -18 -26 -18 -8 0 -19 -7 -26 -15
-7 -9 -15 -13 -18 -10 -3 3 -15 -3 -26 -14 -18 -15 -44 -19 -163 -25 -79 -3
-143 -2 -143 3 0 5 -15 11 -32 15 -72 13 -84 16 -114 24 -17 6 -43 8 -58 5
-24 -5 -74 11 -176 54 -184 79 -320 176 -355 255 l-15 33 7 -50 c4 -27 7 -62
8 -77 0 -16 3 -28 7 -28 4 0 4 -7 1 -17 -4 -10 -2 -14 4 -10 6 4 8 -3 5 -20
-3 -18 -1 -24 6 -19 8 5 10 1 5 -10 -4 -11 -3 -15 4 -11 7 5 9 -1 6 -15 -4
-19 -3 -20 7 -8 9 12 10 11 5 -9 -5 -17 -4 -22 5 -16 9 5 11 4 6 -3 -4 -6 1
-26 10 -44 9 -18 11 -28 5 -22 -6 5 -29 50 -51 100 -22 49 -40 83 -40 77 0 -7
-9 -13 -20 -13 -11 0 -20 -7 -20 -15 0 -8 -5 -15 -11 -15 -6 0 -9 7 -6 15 4 8
1 17 -5 21 -6 4 -8 3 -5 -3 4 -6 -4 -22 -18 -37 -25 -27 -45 -34 -45 -15 0 5
-5 7 -10 4 -6 -4 -17 -1 -25 5 -10 8 -15 9 -15 2 0 -6 4 -13 10 -17 5 -3 7
-12 4 -20 -4 -10 -12 -12 -31 -4 -19 7 -24 6 -20 -3 2 -7 10 -12 16 -10 6 1
11 -3 11 -9 0 -6 -7 -8 -16 -5 -8 3 -22 -1 -31 -9 -8 -8 -19 -12 -25 -9 -7 4
-8 2 -4 -4 4 -6 14 -9 24 -6 15 5 14 4 -1 -6 -15 -9 -22 -8 -37 5 -14 12 -20
13 -26 4 -4 -7 -3 -10 4 -5 6 3 13 2 17 -4 10 -16 -21 -23 -45 -10 -15 8 -20
8 -16 1 7 -10 -6 -16 -27 -12 -5 1 -6 -3 -2 -9 3 -5 -1 -10 -9 -10 -9 0 -16
-4 -16 -10 0 -5 -9 -10 -19 -10 -11 0 -23 -4 -26 -10 -6 -9 4 -8 42 7 30 11
43 12 43 3 0 -5 3 -17 6 -27 5 -17 5 -17 -9 0 -15 17 -33 24 -23 8 6 -9 -17
-22 -37 -20 -7 0 -3 4 8 9 15 7 16 9 4 9 -9 1 -22 -6 -29 -15 -8 -8 -9 -14 -4
-13 21 4 32 -2 39 -18 5 -15 4 -16 -6 -5 -7 6 -22 12 -34 12 -17 0 -18 -2 -5
-11 11 -8 6 -9 -20 -4 -28 5 -31 4 -17 -5 17 -11 17 -13 0 -41 -9 -16 -21 -29
-26 -29 -4 0 -5 5 -2 10 3 6 1 10 -4 10 -6 0 -11 -7 -11 -16 0 -8 -4 -13 -9
-9 -5 3 -12 1 -15 -4 -4 -5 -1 -13 5 -17 8 -4 9 -3 5 4 -5 8 -1 10 10 5 15 -5
15 -7 0 -15 -9 -5 -20 -7 -25 -4 -4 3 -14 -6 -21 -19 -10 -18 -17 -22 -26 -14
-7 6 -14 6 -18 1 -3 -6 4 -12 15 -15 12 -3 18 -10 15 -16 -4 -5 -2 -12 4 -16
5 -3 10 -1 10 6 0 7 2 10 5 7 3 -3 3 -12 -1 -21 -5 -15 -8 -15 -21 -1 -22 22
-28 9 -9 -21 9 -14 12 -25 6 -25 -5 0 -10 4 -10 9 0 5 -13 3 -30 -5 -16 -9
-30 -18 -30 -20 0 -3 4 -2 10 1 14 9 43 -10 46 -29 1 -9 -5 -16 -13 -16 -13 0
-13 2 -2 17 12 15 12 16 -4 10 -12 -5 -16 -3 -11 5 5 7 3 8 -5 4 -7 -5 -10
-14 -7 -22 3 -7 1 -16 -3 -19 -5 -3 -7 -15 -5 -28 2 -12 2 -17 -2 -10 -3 7
-12 9 -21 6 -12 -5 -14 -3 -8 7 5 9 4 11 -4 6 -6 -4 -9 -12 -6 -17 4 -5 1 -9
-6 -9 -28 0 7 -16 43 -19 5 -1 6 -11 4 -23 -2 -13 -9 -22 -16 -20 -6 1 -9 -2
-5 -8 3 -5 1 -10 -4 -10 -6 0 -11 5 -11 10 0 6 -6 10 -12 10 -7 0 -1 -11 12
-24 14 -13 33 -22 42 -20 10 1 18 -1 18 -7 0 -10 -13 -13 -44 -9 -15 1 -17 -3
-12 -24 6 -26 -8 -37 -17 -13 -3 6 -4 2 -4 -10 1 -13 5 -23 9 -23 4 0 8 -7 8
-15 0 -8 -5 -15 -12 -15 -6 0 -9 -2 -6 -5 10 -10 38 7 49 29 10 21 10 21 -6 1
-16 -19 -17 -19 -13 -1 1 10 13 25 24 33 21 14 21 13 11 -27 -6 -22 -16 -40
-22 -41 -5 -1 1 -5 15 -9 24 -8 24 -8 3 -9 -13 -1 -23 -7 -23 -13 0 -9 -4 -8
-10 2 -6 9 -10 10 -10 3 0 -19 21 -27 31 -12 7 12 9 12 9 0 0 -7 6 -11 14 -8
9 4 12 -2 10 -23 -2 -16 2 -30 9 -33 6 -2 4 -3 -5 -2 -10 2 -21 -1 -24 -6 -3
-6 -12 -5 -22 3 -15 12 -16 11 -3 -5 10 -12 17 -14 26 -7 9 8 14 6 19 -5 4
-11 12 -14 27 -10 15 5 19 4 15 -4 -4 -6 0 -14 9 -17 12 -5 13 -9 4 -14 -9 -6
-6 -14 10 -31 11 -12 21 -28 21 -35 0 -7 15 -16 32 -20 18 -4 27 -9 20 -11 -6
-3 -10 -9 -7 -14 4 -5 -2 -6 -12 -2 -10 3 -15 3 -11 -2 4 -4 2 -15 -5 -24 -11
-14 -10 -14 6 -2 14 11 17 11 18 0 1 -8 1 -18 -1 -24 -1 -5 4 -4 11 3 20 19
24 15 25 -26 1 -20 -1 -31 -3 -24 -3 6 -10 9 -16 5 -7 -4 -5 2 3 13 14 17 14
18 -2 6 -9 -8 -23 -11 -30 -7 -7 4 -3 -2 10 -14 13 -11 18 -22 12 -26 -5 -3
-10 -15 -10 -26 0 -10 -4 -19 -9 -19 -6 0 -9 -9 -8 -20 1 -11 5 -20 9 -20 4 0
8 -7 8 -15 0 -8 -5 -15 -12 -15 -6 0 -9 -3 -5 -6 10 -10 32 10 32 30 0 10 10
25 22 33 20 13 21 13 16 -6 -3 -11 -10 -19 -15 -18 -6 1 -13 -4 -15 -10 -3 -7
1 -13 7 -13 9 0 9 -4 3 -13 -19 -24 -23 -64 -8 -77 8 -7 12 -17 8 -23 -3 -6
-1 -7 5 -3 8 5 8 15 2 32 -17 44 -13 63 12 56 17 -4 19 -7 6 -11 -18 -7 -15
-40 4 -52 7 -5 9 -9 3 -9 -5 0 -1 -7 9 -15 18 -13 18 -15 3 -16 -9 -1 -23 -2
-29 -3 -7 -1 -20 2 -28 8 -12 8 -13 8 -3 -4 14 -15 36 -22 72 -22 17 0 20 -3
12 -11 -7 -7 -19 -12 -28 -12 -9 0 -18 -6 -20 -12 -6 -18 22 -16 37 2 15 18
31 10 23 -10 -4 -13 6 -19 28 -17 3 1 5 -10 3 -24 -2 -19 4 -27 22 -34 14 -6
37 -21 51 -34 15 -14 30 -23 34 -20 10 6 5 -24 -6 -33 -4 -4 -5 -2 -1 4 5 9 2
11 -9 6 -13 -4 -14 -8 -4 -14 7 -4 17 -5 21 -3 4 3 8 0 8 -7 0 -9 3 -9 14 0
11 9 16 9 22 0 4 -7 3 -9 -4 -5 -6 3 -14 1 -17 -5 -4 -5 -13 -8 -19 -6 -7 3
-13 0 -13 -6 0 -15 50 -19 58 -6 3 6 11 4 18 -5 8 -10 9 -16 1 -21 -5 -3 -10
-2 -10 4 0 6 -7 8 -15 5 -8 -4 -15 -10 -15 -16 0 -5 4 -7 9 -3 5 3 12 1 15 -4
8 -13 47 -1 40 13 -3 6 6 -2 20 -17 14 -15 26 -34 26 -41 0 -20 27 -40 35 -26
4 6 1 9 -6 8 -7 -2 -15 6 -17 16 -4 18 -3 18 12 4 8 -9 21 -18 28 -21 9 -3 7
-10 -7 -27 l-20 -23 23 12 c12 6 22 16 22 22 0 6 5 7 10 4 6 -4 7 -12 4 -18
-4 -7 -4 -9 1 -5 4 4 15 2 23 -5 13 -11 14 -9 2 13 -12 23 -12 24 4 11 10 -8
15 -23 13 -33 -5 -18 0 -21 35 -21 9 0 16 -5 15 -11 -1 -6 8 -11 20 -11 12 0
26 -5 30 -9 4 -5 3 -6 -4 -2 -6 3 -14 2 -18 -4 -3 -5 3 -10 14 -10 12 0 21 6
21 13 0 9 3 8 9 -2 5 -7 14 -10 20 -7 6 4 11 0 11 -8 0 -9 6 -15 13 -13 6 1
12 -7 12 -17 0 -22 20 -33 30 -17 4 7 -1 8 -12 4 -17 -6 -17 -5 0 13 15 16 19
17 27 4 5 -8 6 -18 3 -24 -4 -5 -1 -6 7 -1 10 6 12 4 7 -7 -4 -11 -1 -15 11
-13 9 2 19 4 22 4 3 1 -1 5 -8 10 -11 7 -10 9 3 14 9 4 13 3 10 -2 -3 -5 0
-13 6 -17 8 -4 7 -9 -2 -16 -10 -7 -8 -8 7 -3 14 3 28 -1 38 -10 15 -16 21 -9
17 18 0 4 4 7 10 7 6 0 9 -9 6 -20 -5 -20 3 -26 17 -13 10 11 36 12 36 3 0 -5
-7 -13 -16 -18 -11 -6 -13 -11 -5 -16 6 -4 11 -3 11 3 0 6 7 8 15 5 11 -5 13
-2 8 12 -4 12 -3 15 5 10 7 -4 12 -15 13 -24 0 -14 2 -13 8 3 8 19 8 19 16 -4
5 -18 9 -21 16 -10 8 12 10 12 18 0 7 -10 10 -10 13 -1 3 10 9 10 26 1 14 -7
20 -17 15 -24 -5 -8 -2 -8 9 1 13 10 17 10 20 0 4 -10 8 -10 21 1 14 11 17 11
18 0 1 -8 1 -18 0 -22 -1 -5 3 -6 9 -2 6 3 8 11 5 16 -4 5 1 9 9 9 9 0 16 -7
16 -16 0 -12 7 -15 27 -11 15 3 37 0 48 -6 18 -9 18 -8 7 6 -11 13 -10 15 5
12 10 -1 17 -7 16 -13 -2 -7 15 -9 42 -7 32 3 43 0 39 -7 -5 -7 -1 -9 9 -5 11
4 18 -1 23 -15 l7 -22 18 23 c11 13 19 19 19 13 0 -5 9 -12 20 -15 11 -3 20
-2 20 2 0 4 10 7 23 5 12 -1 25 -3 30 -3 4 -1 7 -8 7 -17 0 -8 5 -12 10 -9 6
4 8 11 4 17 -3 5 8 2 26 -7 30 -16 31 -16 21 3 -7 14 -7 19 4 19 8 0 12 -4 9
-9 -3 -4 0 -8 5 -8 6 0 11 -7 11 -15 0 -12 4 -13 19 -6 10 6 21 7 25 4 3 -3 6
2 7 13 0 10 3 13 6 7 2 -7 9 -13 14 -13 6 0 8 4 5 8 -3 5 1 9 8 9 8 0 12 -9
10 -21 -3 -12 -1 -15 2 -8 5 10 9 10 22 0 13 -11 15 -11 10 3 -3 9 -2 22 4 30
8 11 9 10 4 -3 -3 -12 2 -22 17 -29 19 -11 21 -10 9 3 -10 13 -10 18 -1 24 7
4 9 3 6 -3 -4 -6 0 -13 8 -17 8 -3 17 0 21 6 5 7 2 8 -6 3 -9 -5 -11 -4 -6 3
11 18 26 14 26 -5 0 -14 2 -15 9 -5 6 11 11 10 24 -3 9 -9 22 -13 27 -10 6 4
19 1 28 -7 15 -12 16 -11 3 5 -12 15 -12 17 3 11 11 -4 16 -1 16 10 0 9 5 16
11 16 5 0 7 -5 4 -11 -4 -6 0 -9 11 -7 11 2 18 -2 17 -10 -4 -17 14 -15 20 2
3 8 1 17 -6 19 -7 3 -2 4 10 4 16 -1 19 -4 12 -13 -7 -8 -6 -15 2 -20 7 -4 9
-3 6 3 -4 6 2 13 13 16 11 3 20 1 20 -5 0 -5 16 -7 38 -4 20 3 43 5 50 6 6 0
12 4 12 10 0 5 -8 7 -17 4 -14 -5 -15 -4 -4 4 7 5 21 8 30 7 9 -2 24 -4 34 -4
10 -1 16 -5 13 -9 -2 -4 5 -9 17 -9 17 -2 19 0 7 7 -13 8 -12 10 3 10 10 0 15
5 12 10 -3 5 1 10 10 10 10 0 13 -5 9 -12 -4 -7 8 -3 28 9 34 20 36 20 48 2
15 -19 32 -16 28 6 -2 8 2 13 7 12 6 -1 10 -7 9 -13 -1 -6 5 -11 13 -11 8 0
12 6 9 13 -8 20 5 24 22 7 15 -14 17 -13 25 10 6 18 13 24 27 20 11 -3 18 -8
16 -12 -3 -4 -1 -13 4 -21 7 -11 10 -7 15 13 6 22 10 25 21 16 11 -9 14 -8 14
1 0 8 3 10 7 7 3 -4 13 -1 21 6 13 10 14 9 4 -9 -9 -16 -8 -21 3 -21 8 0 13 5
12 11 -2 11 4 12 51 15 13 0 20 6 17 11 -3 6 1 10 9 10 9 0 16 -6 16 -12 0 -9
4 -8 10 2 13 20 12 39 -1 20 -9 -13 -10 -13 -6 0 2 9 15 15 32 14 16 -1 35 5
43 12 16 17 32 18 32 3 0 -6 6 -9 14 -6 7 3 19 0 25 -6 8 -8 11 -8 11 0 0 14
-25 34 -33 26 -4 -3 -7 2 -7 12 0 10 3 15 7 12 3 -4 11 -2 18 3 8 6 18 5 31
-6 18 -14 18 -15 -3 -5 -14 7 -24 8 -28 1 -3 -5 2 -10 12 -10 11 0 25 -6 32
-12 11 -11 12 -10 6 1 -6 11 -4 13 8 8 9 -3 19 -2 22 3 3 4 -1 11 -7 13 -8 3
-6 6 5 6 9 1 17 6 17 11 0 13 -6 13 -31 0 -10 -6 -19 -9 -19 -6 0 12 104 56
112 48 11 -11 58 -3 58 10 0 5 -4 6 -10 3 -6 -3 -7 1 -4 9 5 13 8 13 20 2 8
-8 23 -12 36 -8 12 3 17 7 10 10 -6 2 -12 8 -12 13 0 6 5 7 10 4 13 -8 40 19
40 39 0 9 5 16 10 16 6 0 10 -8 10 -19 0 -11 9 -21 21 -24 20 -5 20 -5 3 14
-15 17 -15 19 -1 19 9 0 21 -8 27 -17 11 -17 11 -17 6 0 -3 10 -6 23 -6 29 0
6 -8 7 -17 3 -14 -5 -15 -4 -6 6 9 9 15 9 26 0 12 -9 16 -8 20 3 3 8 1 17 -6
20 -7 3 0 3 15 0 23 -5 30 -2 37 17 7 18 10 19 10 7 1 -10 6 -18 12 -18 5 0 7
4 4 10 -3 5 -2 10 4 10 6 0 7 7 4 17 -4 11 -3 14 5 9 7 -4 12 -1 12 8 0 9 5
16 11 16 5 0 7 6 3 13 -5 8 -2 7 9 -2 13 -10 15 -17 6 -27 -8 -10 -8 -14 0
-14 19 0 26 5 23 17 -1 6 3 15 9 19 8 5 9 3 4 -7 -5 -8 1 -5 14 5 12 11 20 25
17 31 -2 7 2 12 9 12 8 0 11 -7 8 -16 -5 -13 -3 -14 8 -3 17 16 46 16 52 0 2
-7 8 -9 13 -5 5 5 1 13 -9 18 -9 6 -15 15 -11 20 3 6 12 2 21 -10 18 -26 37
-18 23 9 -8 15 -6 18 8 15 9 -1 17 -9 16 -17 -1 -8 4 -15 11 -15 8 0 11 7 7
15 -4 11 -2 13 9 7 21 -14 49 -13 49 1 0 7 5 16 12 20 8 5 9 2 5 -9 -3 -9 -1
-19 5 -23 6 -4 8 -3 5 2 -3 6 -2 16 4 24 7 13 9 12 9 -2 0 -11 5 -15 14 -12 8
3 12 12 9 20 -3 8 0 14 6 14 6 0 11 -7 11 -15 0 -8 4 -15 10 -15 5 0 7 7 4 15
-5 11 -2 13 10 9 9 -4 16 -1 16 6 0 10 3 10 15 0 11 -9 15 -9 15 -1 0 7 5 9
13 4 20 -12 60 -15 52 -3 -3 5 -2 10 4 10 5 0 12 -6 14 -12 4 -10 6 -10 6 0 1
7 5 11 10 8 5 -4 7 3 4 15 -5 16 -8 18 -15 7 -8 -11 -9 -10 -6 1 8 29 110 33
130 6 5 -6 8 -5 8 3 0 7 5 10 12 6 6 -4 8 -3 5 4 -9 14 3 43 14 36 5 -3 12 2
15 10 3 9 11 16 17 16 7 0 7 -4 -1 -12 -7 -7 -12 -21 -11 -33 0 -11 3 -14 6
-7 2 6 12 12 21 12 15 0 15 2 2 10 -13 9 -13 10 0 11 8 1 18 1 22 0 5 0 7 5 5
12 -1 7 10 12 31 12 37 0 39 3 15 21 -10 7 -14 16 -10 20 4 5 11 4 15 -1 9
-13 47 -13 59 -1 5 6 2 6 -7 1 -12 -6 -13 -5 -3 5 7 7 27 13 45 13 18 0 25 2
16 4 -20 5 -24 28 -6 39 6 4 8 3 5 -3 -4 -6 0 -14 9 -17 8 -3 12 -2 9 4 -3 6
-1 10 5 10 6 0 15 -10 20 -22 8 -22 11 -21 14 5 0 6 8 12 16 12 20 0 48 27 42
42 -2 7 -9 10 -16 6 -6 -4 -5 1 3 10 7 9 21 17 30 17 13 0 13 -2 2 -9 -7 -5
-9 -11 -4 -14 6 -4 25 8 44 25 19 17 27 27 19 23 -8 -4 -6 1 5 12 11 11 26 18
34 15 9 -3 12 -1 7 6 -11 19 15 14 31 -5 8 -10 12 -13 9 -6 -4 6 -2 14 3 18 6
3 8 12 5 20 -4 10 0 13 14 10 13 -2 19 2 18 13 0 9 5 16 12 14 8 -1 11 2 7 8
-3 5 5 15 20 22 18 8 24 17 19 30 -3 10 0 18 6 18 6 0 9 -4 6 -8 -2 -4 0 -14
6 -22 7 -11 8 -6 4 18 -5 31 7 45 17 20 3 -8 6 -6 6 5 1 9 7 17 14 17 8 0 9 3
1 8 -6 4 -11 22 -11 40 0 18 3 29 6 25 7 -11 22 -10 39 0 6 5 12 4 12 -1 0 -6
7 -13 16 -16 8 -3 13 -2 9 3 -3 5 -2 11 2 14 5 2 2 2 -4 1 -7 -2 -12 2 -10 8
1 5 -6 12 -15 13 -10 2 -18 -1 -18 -6 0 -5 -5 -9 -11 -9 -8 0 -9 4 0 13 6 8 7
17 3 21 -4 4 -2 7 3 6 22 -5 32 1 43 24 7 17 17 23 36 21 34 -4 23 20 -16 34
-16 6 -27 15 -23 21 4 7 12 7 26 0 15 -9 19 -7 19 5 0 9 -5 26 -11 38 -9 20
-9 20 4 5 8 -10 17 -15 21 -11 3 4 -5 14 -18 22 -18 12 -21 21 -15 36 4 11 8
14 8 7 1 -7 5 -11 10 -8 4 3 6 18 4 33 -5 25 -4 26 8 11 9 -12 19 -15 28 -9 9
6 10 11 2 15 -6 4 -11 1 -11 -6 0 -8 -4 -7 -11 4 -5 9 -16 15 -24 12 -8 -4
-13 -9 -10 -13 2 -4 -2 -8 -10 -8 -8 0 -11 5 -7 11 3 6 7 18 7 26 0 10 9 14
25 13 14 -1 20 1 13 3 -7 3 -10 11 -7 18 3 8 -3 16 -13 20 -13 6 -14 9 -4 15
10 7 11 12 0 29 -11 18 -10 24 5 41 17 19 18 21 2 21 -13 0 -15 4 -6 19 7 14
7 22 0 26 -6 4 -7 11 -4 17 4 6 3 9 -2 6 -5 -4 -9 -27 -8 -52 0 -25 -4 -46 -9
-46 -5 0 -7 13 -3 30 5 26 2 32 -19 42 -31 14 -31 25 -2 48 12 10 18 22 14 27
-5 4 -15 0 -22 -11 -13 -18 -14 -17 -21 8 -3 14 -10 26 -15 26 -5 0 -6 7 -3
15 4 9 0 15 -9 15 -11 0 -14 -7 -10 -22 5 -18 3 -20 -7 -12 -15 15 -8 50 9 46
7 -1 10 2 6 8 -3 6 -11 8 -16 5 -5 -4 -9 4 -9 17 0 18 -2 20 -9 8 -6 -8 -7
-28 -4 -45 3 -16 3 -27 -1 -23 -8 7 -14 32 -15 66 -1 13 -5 20 -11 17 -6 -4
-8 -12 -4 -18 3 -7 -2 -3 -10 8 -9 11 -14 25 -12 32 3 7 1 13 -3 13 -5 0 -12
-6 -14 -12 -3 -7 -4 1 -2 17 2 23 -1 31 -13 33 -45 5 -57 10 -60 25 -2 10 2
17 8 17 6 0 8 -4 5 -10 -3 -5 -1 -10 5 -10 21 0 4 25 -19 28 -15 2 -21 0 -17
-7 4 -6 2 -11 -3 -11 -6 0 -11 13 -11 30 0 28 -33 60 -48 46 -3 -3 0 -6 7 -6
8 0 7 -5 -3 -16 -9 -8 -13 -21 -9 -27 3 -7 2 -8 -3 -4 -5 5 -9 23 -9 40 0 30
-2 32 -37 32 -21 0 -38 3 -38 7 0 5 6 8 14 8 8 0 17 4 20 9 3 4 -6 6 -21 3
-20 -4 -24 -2 -18 9 5 8 0 7 -12 -4 -20 -18 -33 -14 -33 11 0 9 6 12 18 7 13
-5 14 -4 5 6 -7 7 -25 14 -40 15 -21 2 -24 1 -13 -6 13 -8 13 -10 -2 -10 -9 0
-21 13 -27 30 -11 32 -20 37 -37 20 -12 -12 -44 -3 -44 12 0 5 6 6 13 2 7 -4
7 -2 -2 7 -10 11 -15 11 -18 2 -3 -7 -9 -13 -14 -13 -6 0 -7 5 -3 11 4 7 0 9
-12 5 -11 -3 -26 -1 -34 5 -12 8 -10 9 8 4 13 -4 22 -2 22 4 0 10 -14 15 -32
12 -5 0 -8 4 -8 10 0 5 -4 7 -10 4 -5 -3 -10 -1 -10 6 0 7 -3 9 -6 6 -4 -4 -1
-13 5 -21 9 -10 9 -16 1 -21 -6 -4 -14 -4 -17 -1 -4 3 -1 6 6 6 9 0 9 4 -1 14
-11 13 -15 13 -25 -2 -11 -14 -13 -12 -13 11 0 15 -5 27 -11 27 -5 0 -7 -4 -4
-10 3 -6 2 -10 -4 -10 -5 0 -11 5 -13 11 -2 6 -16 12 -31 12 -21 2 -27 6 -23
20 5 20 -12 24 -20 4 -2 -7 -14 -13 -25 -14 -17 -2 -18 1 -8 13 10 12 10 17 0
27 -10 9 -11 8 -6 -5 5 -13 2 -18 -9 -18 -9 0 -16 5 -16 12 0 6 -3 8 -6 5 -4
-4 -1 -13 5 -21 10 -12 8 -14 -13 -12 -14 1 -29 6 -34 11 -4 4 -1 4 7 0 11 -6
13 -4 8 9 -4 10 -3 15 3 11 6 -3 10 -1 10 5 0 6 20 52 44 102 48 97 97 244
117 346 10 52 15 62 28 55 9 -4 48 -7 86 -7 56 0 80 5 121 26 166 87 329 370
403 704 16 70 17 101 9 230 -4 82 -15 174 -23 204 l-15 55 5 -80 c10 -167 -31
-420 -96 -586 -19 -46 -56 -118 -84 -159 -57 -85 -103 -116 -159 -106 -76 14
-86 51 -41 156 15 36 37 91 48 122 l22 57 -24 25 c-23 25 -41 33 -119 57 -82
24 -131 120 -103 200 6 18 11 33 11 35 0 1 -15 -2 -32 -7 -34 -10 -100 -4
-130 13 -13 6 -18 21 -18 49 0 44 14 76 70 159 51 76 50 76 32 77 -48 4 -62 9
-63 23 -1 31 -20 -36 -45 -157 -13 -67 -28 -133 -33 -146 -7 -18 3 -46 45
-132 30 -60 57 -124 60 -143 5 -27 15 -37 54 -57 58 -30 123 -101 138 -153 30
-99 -3 -202 -84 -268 -41 -34 -44 -40 -45 -88 -1 -98 -23 -111 -32 -18 -3 32
0 45 12 52 11 7 4 8 -24 3 -120 -23 -228 7 -295 83 -35 41 -69 107 -70 139 -1
18 -2 18 -10 -3 -11 -26 2 -108 25 -151 8 -17 15 -42 15 -56 0 -28 24 -80 46
-103 8 -7 14 -21 14 -30 0 -9 9 -28 20 -42 26 -33 25 -54 -4 -73 -13 -9 -31
-24 -41 -33 -25 -26 -118 -36 -192 -22 -55 10 -63 14 -63 34 0 13 4 25 9 28 9
6 18 51 27 144 l6 54 -41 -40 c-60 -58 -122 -84 -213 -90 -190 -11 -338 96
-338 245 0 62 15 108 49 153 47 61 45 66 -7 16 -27 -26 -57 -65 -65 -85 -24
-59 -37 -106 -37 -132 0 -13 -7 -37 -15 -53 -8 -15 -15 -41 -15 -56 0 -19 -7
-30 -25 -38 -14 -6 -33 -28 -42 -47 -14 -29 -21 -35 -38 -30 -11 4 -38 10 -60
15 -89 17 -121 35 -190 109 -60 63 -94 113 -95 141 0 8 21 66 47 130 38 92 47
129 50 184 1 38 7 72 13 76 7 4 3 32 -10 85 -11 43 -20 86 -20 96 0 12 -6 16
-20 12 -10 -3 -26 2 -35 11 -22 22 -38 20 -30 -3 3 -11 2 -28 -3 -38 -6 -10
-15 -31 -21 -46 -7 -18 -25 -35 -50 -45 -35 -15 -40 -21 -45 -60 -9 -64 -25
-89 -161 -244 -139 -159 -173 -188 -220 -188 -39 0 -62 24 -104 107 -17 34
-35 64 -40 68 -16 9 -28 -25 -36 -100 -8 -73 -18 -97 -39 -89 -24 9 -60 -61
-103 -201 -23 -73 -80 -29 -117 88 -60 195 -98 488 -98 777 -1 264 24 390 87
454 22 22 7 20 -31 -3z m2335 -1567 c15 -9 40 -35 55 -58 26 -40 65 -151 69
-194 0 -11 6 -20 12 -19 6 1 10 -51 11 -153 l0 -155 -6 150 c-7 177 -12 173
-11 -10 1 -71 -3 -143 -8 -160 -5 -18 -10 -23 -10 -12 -1 15 -6 17 -30 12 -34
-7 -151 13 -151 26 0 5 -9 9 -20 9 -11 0 -20 4 -20 10 0 5 -14 22 -31 37 -42
37 -101 118 -124 168 -9 22 -30 65 -46 96 -15 30 -31 73 -34 95 -6 35 -2 44
31 87 20 26 43 47 50 47 8 0 14 4 14 8 0 13 45 34 87 41 49 9 125 -3 162 -25z
m-2029 -1224 c201 -29 208 -32 272 -104 l56 -63 -69 -66 c-38 -37 -75 -67 -82
-67 -6 0 -23 -6 -37 -13 -45 -24 -119 -40 -156 -34 -45 8 -110 41 -146 74 -28
27 -58 99 -58 141 0 33 57 152 72 152 7 0 74 -9 148 -20z"/>
<path d="M4163 3466 c-83 -38 -64 -156 26 -156 90 0 140 76 89 134 -28 32 -73
40 -115 22z"/>
<path d="M3455 3318 c-57 -31 -72 -98 -32 -136 34 -32 106 -30 146 4 64 54 28
144 -58 144 -20 0 -45 -6 -56 -12z"/>
</g>
</svg>
